<svg width="58" height="42" viewBox="0 0 58 42" fill="none" xmlns="http://www.w3.org/2000/svg">
<path d="M56.8758 3.6562C56.872 3.6562 56.8682 3.6562 56.8645 3.6562H53.0533V2.35207C53.0738 1.8359 52.7399 1.37201 52.2438 1.22783C49.5979 0.534445 46.8733 0.186771 44.138 0.193517C39.641 0.193517 33.5139 1.20534 28.9831 5.81476C24.4861 1.16037 18.314 0.193517 13.8283 0.193517C11.093 0.186771 8.36835 0.534445 5.72243 1.22783C5.22635 1.37201 4.89245 1.8359 4.91297 2.35207V3.64496H1.12425C0.503382 3.64496 0 4.14834 0 4.76921V40.6777C0 41.2986 0.503382 41.802 1.12425 41.802C1.31734 41.8014 1.50706 41.7511 1.67513 41.6558C1.78756 41.5996 13.03 35.45 28.7246 39.4073H28.8932H28.9944C29.084 39.4181 29.1745 39.4181 29.2642 39.4073C45.0037 35.4162 56.2462 41.5546 56.3136 41.6558C56.6614 41.8566 57.0901 41.8566 57.4379 41.6558C57.7836 41.4563 57.9976 41.0882 58 40.689V4.78045C58 4.15959 57.4968 3.6562 56.8758 3.6562ZM2.2485 38.8902V5.9047H4.93545V34.1009C4.92843 34.7217 5.42605 35.2307 6.04691 35.2378C6.10762 35.2385 6.16833 35.2342 6.22834 35.2251C8.55413 34.87 10.9023 34.6821 13.2549 34.663C16.5138 34.6065 19.7591 35.0967 22.856 36.1133C15.8624 35.2676 8.76872 36.2234 2.2485 38.8902ZM13.2549 32.4257C11.21 32.4304 9.16755 32.5618 7.13898 32.8192V3.24023C9.32789 2.75259 11.5632 2.50371 13.8058 2.49823C18.0105 2.49823 23.8116 3.46508 27.8364 8.00705L27.8701 36.0121C25.5317 34.4831 20.9672 32.4257 13.2549 32.4257ZM30.1186 8.00705C34.1434 3.51005 39.9446 2.49823 44.1493 2.49823C46.3917 2.50483 48.627 2.75357 50.816 3.24023V32.8192C48.7989 32.5594 46.7676 32.4242 44.7339 32.4145C37.0665 32.4145 32.4908 34.4719 30.1186 36.0008V8.00705ZM55.7403 38.8902C49.2061 36.2161 42.0961 35.2601 35.0878 36.1133C38.1993 35.093 41.4601 34.6027 44.7339 34.663C47.1012 34.6762 49.4646 34.8603 51.8054 35.2139C52.4192 35.307 52.9925 34.8849 53.0856 34.271C53.0948 34.211 53.099 34.1503 53.0983 34.0896V5.9047H55.7852L55.7403 38.8902Z" fill="#E8D885"/>
</svg>
