<svg width="53" height="57" viewBox="0 0 53 57" fill="none" xmlns="http://www.w3.org/2000/svg">
<path d="M51.8533 4.98068H43.1939V2.5089C43.1939 1.50389 42.3761 0.68573 41.3707 0.68573H11.6287C10.6233 0.68573 9.80553 1.50389 9.80553 2.5089V4.98068H1.14608C0.680615 4.98068 0.303223 5.35766 0.303223 5.82354V7.95126C0.303223 14.746 3.61498 21.1398 9.16187 25.0553L10.1623 25.7616C10.2938 25.8538 10.4429 25.8972 10.5924 25.9071C12.1362 30.7544 15.8421 34.633 20.5676 36.4381V40.7297H14.1787C13.7132 40.7297 13.3358 41.1067 13.3358 41.5725V47.3203H9.56477C9.09931 47.3203 8.72192 47.6972 8.72192 48.1631V55.4714C8.72192 55.9373 9.09931 56.3143 9.56477 56.3143H43.4346C43.9001 56.3143 44.2775 55.9373 44.2775 55.4714V48.1631C44.2775 47.6972 43.9001 47.3203 43.4346 47.3203H39.6636V41.5725C39.6636 41.1067 39.2862 40.7297 38.8207 40.7297H32.4318V36.4381C37.1573 34.633 40.8632 30.7544 42.407 25.9071C42.5565 25.8972 42.7056 25.8538 42.8371 25.7616L43.8375 25.0553C49.3844 21.1398 52.6962 14.746 52.6962 7.95126V5.82354C52.6962 5.35766 52.3188 4.98068 51.8533 4.98068ZM1.98894 7.95126V6.66639H9.80553V20.8526C9.80553 21.7964 9.90297 22.716 10.0542 23.6175C5.00298 20.0131 1.98894 14.1652 1.98894 7.95126ZM42.5918 54.6286H10.4076V49.006H14.1787H38.8207H42.5918V54.6286ZM37.9779 47.3203H15.0215V42.4154H37.9779V47.3203ZM30.7461 40.7297H22.2533V36.9786C23.6119 37.3368 25.0302 37.5467 26.4997 37.5467C27.9692 37.5467 29.3875 37.3368 30.7461 36.9786V40.7297ZM41.5082 20.8526C41.5082 27.46 37.2107 33.0725 31.2681 35.0713C31.2644 35.0728 31.2607 35.0739 31.257 35.0754C29.76 35.5776 28.1637 35.861 26.4997 35.861C24.8357 35.861 23.2394 35.5776 21.7424 35.0754C21.7387 35.0739 21.735 35.0728 21.7313 35.0713C15.7887 33.0725 11.4912 27.46 11.4912 20.8526V2.5089C11.4912 2.43318 11.553 2.37144 11.6287 2.37144H41.3707C41.4464 2.37144 41.5082 2.43318 41.5082 2.5089V20.8526ZM51.0105 7.95126C51.0105 14.1652 47.9964 20.0131 42.9452 23.6175C43.0964 22.716 43.1939 21.7964 43.1939 20.8526V6.66639H51.0105V7.95126Z" fill="#DDC751"/>
</svg>
