<svg width="57" height="51" viewBox="0 0 57 51" fill="none" xmlns="http://www.w3.org/2000/svg">
<path d="M51.0683 32.0849C51.0727 32.0801 51.077 32.0758 51.0814 32.071C51.4432 31.7035 51.5515 31.5204 52.0664 30.7837C58.6722 24.0866 58.6443 13.2647 51.9824 6.60288C49.8672 4.49112 49.9572 4.56939 49.8463 4.47764C43.7263 -0.576498 35.1523 -0.718703 28.5639 3.1891C21.0758 -1.26099 11.3993 0.15018 5.4859 6.74813L4.13778 8.25193C-1.60432 14.659 -1.33905 24.4415 4.74009 30.528C5.47764 31.2821 10.8971 36.8233 10.8988 36.825C11.806 37.7318 12.9766 38.2167 14.166 38.2819C14.2313 39.4717 14.7166 40.642 15.6229 41.5487C16.53 42.4554 17.7007 42.9407 18.8901 43.0055C18.9553 44.1953 19.4402 45.366 20.3469 46.2727C21.7807 47.7065 23.8294 48.0666 25.5615 47.4556C25.8025 48.1392 26.1956 48.7807 26.7414 49.3264C28.6948 51.2799 31.8738 51.2803 33.8272 49.3264L36.8814 46.2727C37.7872 45.3665 38.2725 44.1971 38.3378 43.0081C39.5728 42.942 40.7244 42.4297 41.6054 41.5487C42.4865 40.6676 42.9983 39.5161 43.0649 38.2814C44.2534 38.2158 45.4232 37.7309 46.3295 36.8246C47.2362 35.9179 47.722 34.7476 47.7868 33.5583C48.9762 33.493 50.1468 33.0073 51.0531 32.1005C51.0583 32.0958 51.0631 32.0901 51.0683 32.0849ZM47.6602 7.00427L49.6206 8.96469C54.1855 13.5296 54.8818 20.5198 51.7111 25.8257C51.201 25.0447 51.5693 25.5839 41.9312 15.8927C43.6115 15.6218 45.1618 14.8342 46.3865 13.6096C47.0388 12.9577 47.0388 11.9001 46.3865 11.2478C45.7341 10.5955 44.6765 10.5955 44.0242 11.2478C42.1834 13.0886 39.1597 13.1178 37.2836 11.313L36.8066 10.8542C36.2412 10.3106 35.3745 10.2332 34.7222 10.6681L26.1604 16.3763C24.0682 17.7705 21.3906 17.7988 19.2941 16.5759C26.5035 9.24866 27.0088 8.31455 29.1158 6.81249C29.1271 6.80901 38.887 -0.159887 47.6602 7.00427ZM13.2606 32.101L17.9851 27.3765C18.6361 26.7255 19.6959 26.7255 20.3469 27.3765C20.9984 28.0279 20.9984 29.0873 20.3474 29.7383C20.3474 29.7383 20.3474 29.7387 20.3469 29.7387L15.6229 34.4628C15.6224 34.4632 15.622 34.4637 15.6216 34.4641C14.9719 35.1125 13.9168 35.1138 13.2654 34.4671L13.2532 34.4545C12.61 33.8027 12.6122 32.7494 13.2606 32.101ZM17.9847 36.825L22.7092 32.1005C23.3606 31.4495 24.42 31.4495 25.071 32.1005C25.7237 32.7537 25.7237 33.8101 25.071 34.4628L20.3469 39.1869C19.6959 39.8379 18.6361 39.8379 17.9851 39.1869C17.3337 38.5359 17.3337 37.4765 17.9847 36.825ZM22.7092 43.9109C22.0582 43.2595 22.0577 42.2001 22.7092 41.5487L27.4332 36.8246C28.0843 36.1736 29.144 36.1736 29.7951 36.8246C30.4478 37.4774 30.4482 38.5337 29.7951 39.1869C29.2315 39.7509 25.6215 43.3608 25.071 43.9109C24.4182 44.5637 23.3619 44.5637 22.7092 43.9109ZM34.5191 43.9109L31.4654 46.9646C30.814 47.6156 29.7546 47.6156 29.1032 46.9646C28.4522 46.3132 28.4522 45.2538 29.1032 44.6024L32.1573 41.5487C32.8083 40.8977 33.8677 40.8972 34.5191 41.5487C35.1706 42.2001 35.1706 43.2595 34.5191 43.9109ZM46.3291 29.7387L36.8809 20.2906C36.2291 19.6383 35.1714 19.6383 34.5191 20.2906C34.193 20.6168 34.0299 21.0443 34.0299 21.4717C34.0299 21.8988 34.193 22.3263 34.5191 22.6524L43.9672 32.1005C44.6187 32.752 44.6183 33.8114 43.9672 34.4624C43.3162 35.1138 42.2564 35.1138 41.605 34.4624L32.1569 25.0147C31.505 24.3624 30.4474 24.3624 29.7951 25.0147C29.1427 25.6666 29.1427 26.7242 29.7951 27.3765L39.2432 36.8246C39.8959 37.4774 39.8959 38.5337 39.2432 39.1869C38.5917 39.8379 37.5324 39.8379 36.8809 39.1869C35.9751 38.2806 34.8053 37.7957 33.6167 37.73C33.5502 36.4954 33.0379 35.3439 32.1569 34.4628C31.251 33.5565 30.0812 33.0716 28.8927 33.006C28.8262 31.7713 28.3139 30.6198 27.4328 29.7387C26.5261 28.832 25.3554 28.3467 24.166 28.2819C24.1008 27.0921 23.6155 25.9214 22.7087 25.0147C20.7553 23.0612 17.5763 23.0612 15.6229 25.0147L10.8988 29.7387C10.5026 30.1349 10.1887 30.5815 9.95295 31.0577C6.44654 27.5013 7.24324 28.3093 7.12147 28.1858C7.11712 28.1814 7.11277 28.1771 7.10842 28.1727C2.27695 23.3408 2.06429 15.57 6.62484 10.4815L7.97296 8.9773C12.4578 3.97361 19.6633 2.61071 25.5646 5.37479C25.2658 5.63963 24.9736 5.91316 24.6896 6.1967C24.6835 6.20323 15.6037 15.5861 15.6037 15.5861C14.9697 16.241 14.9779 17.2839 15.6229 17.9284C18.9323 21.2382 24.1447 21.7344 28.0129 19.1556L35.4824 14.1758C35.5637 14.2423 48.4791 27.1638 48.6909 27.3765C49.8629 28.5489 48.6335 29.7761 48.6274 29.7961C47.9729 30.3871 46.9601 30.3693 46.3291 29.7387Z" fill="#E6D57D"/>
</svg>
