<svg width="57" height="55" viewBox="0 0 57 55" fill="none" xmlns="http://www.w3.org/2000/svg">
<path d="M56.9218 20.855C56.7347 20.2818 56.2433 19.8723 55.6467 19.7787L37.8642 17.2517L29.8621 1.16563C29.593 0.627478 29.0432 0.288208 28.4465 0.288208C27.8499 0.288208 27.3 0.627478 27.031 1.17733L19.1341 17.3102L1.35169 19.9542C0.755045 20.0478 0.263687 20.4572 0.0765037 21.0305C-0.11068 21.6037 0.0531057 22.2355 0.485968 22.645L13.3899 35.1512L10.4067 52.8634C10.3014 53.4601 10.5471 54.0567 11.0384 54.4077C11.3075 54.6066 11.6351 54.7119 11.9627 54.7119C12.22 54.7119 12.4657 54.6534 12.6997 54.5247L28.5752 46.1131L44.4975 54.4311C44.7315 54.5481 44.9772 54.6066 45.2229 54.6066C46.0886 54.6066 46.8022 53.8929 46.8022 53.0272C46.8022 52.8985 46.7905 52.7815 46.7554 52.6645L43.6786 35.0576L56.5007 22.4812C56.9569 22.06 57.109 21.4283 56.9218 20.855ZM40.8942 33.3846C40.5199 33.7473 40.3561 34.2737 40.4497 34.7885L43.1287 50.1493L29.3006 42.931C28.8443 42.6853 28.2944 42.697 27.8265 42.931L14.0451 50.2312L16.6306 34.847C16.7125 34.3322 16.5487 33.8175 16.1743 33.4548L4.99008 22.5982L20.421 20.3052C20.9358 20.2233 21.3803 19.9074 21.6026 19.4394L28.4582 5.43576L35.4074 19.4043C35.6414 19.8723 36.086 20.1882 36.6007 20.2701L52.0434 22.4695L40.8942 33.3846Z" fill="#E6D57D"/>
</svg>
